<svg width="166" height="22" viewBox="0 0 166 22" fill="none" xmlns="http://www.w3.org/2000/svg">
<path d="M123.189 17.3401C124.093 17.3401 124.825 16.5778 124.825 15.6375C124.825 14.6971 124.093 13.9348 123.189 13.9348C122.285 13.9348 121.552 14.6971 121.552 15.6375C121.552 16.5778 122.285 17.3401 123.189 17.3401Z" fill="#FFFFFF"/>
<path d="M29.0384 16.892C28.3062 16.5783 27.6601 16.1303 27.1864 15.5478C26.6695 14.9653 26.2819 14.2932 25.9804 13.5315C25.6789 12.7698 25.5497 11.9184 25.5497 11.0223C25.5497 10.1262 25.6789 9.27486 25.9373 8.51315C26.1958 7.75144 26.5834 7.03454 27.1002 6.49686C27.6171 5.91437 28.22 5.46631 28.9092 5.15266C29.6413 4.83902 30.4166 4.65979 31.3211 4.65979C32.0963 4.65979 32.7424 4.7494 33.3453 4.97344C33.9483 5.19747 34.4651 5.51111 34.9389 5.86957C35.4127 6.22802 35.7572 6.72089 36.0157 7.25857C36.3171 7.79625 36.4894 8.42354 36.5756 9.05083H33.5607C33.4745 8.51315 33.2161 8.06509 32.8285 7.70663C32.4409 7.34818 31.9671 7.16896 31.4072 7.16896C30.4597 7.16896 29.7706 7.52741 29.2968 8.19951C28.823 8.8716 28.6077 9.81254 28.6077 10.9775C28.6077 12.1425 28.823 13.0386 29.2968 13.7555C29.7275 14.4724 30.4597 14.7861 31.4072 14.7861C32.0532 14.7861 32.5701 14.6068 32.9577 14.2932C33.3453 13.9347 33.6038 13.4419 33.733 12.725H36.7478C36.7048 13.3523 36.5325 13.9795 36.2741 14.5172C36.0157 15.0549 35.6711 15.5478 35.1973 15.9958C34.7666 16.3991 34.2067 16.7576 33.6038 16.9816C32.9577 17.2056 32.2686 17.34 31.4933 17.34C30.5889 17.3848 29.7706 17.2056 29.0384 16.892Z" fill="#FFFFFF"/>
<path d="M41.5717 6.49692C42.0024 5.86963 42.4761 5.37676 42.993 5.06312C43.5098 4.74947 44.1558 4.57024 44.9742 4.57024C45.5771 4.57024 46.137 4.70466 46.6108 4.9287C47.0846 5.15273 47.5153 5.46637 47.8598 5.86963C48.2044 6.27289 48.4628 6.76576 48.6782 7.30344C48.8935 7.84112 48.9797 8.46841 48.9797 9.14051V17.0265H45.8786V9.58857C45.8786 8.91648 45.7064 8.3788 45.3618 7.97554C45.0172 7.57228 44.5004 7.34825 43.8544 7.34825C43.1652 7.34825 42.6053 7.61709 42.1746 8.10996C41.7439 8.60283 41.4855 9.27493 41.4855 10.1263V17.0265H38.3845V0.134399H41.4855V6.49692H41.5717Z" fill="#FFFFFF"/>
<path d="M54.0618 16.8921C53.3296 16.5785 52.6836 16.1304 52.1668 15.5479C51.6499 14.9654 51.2623 14.2933 51.0039 13.4868C50.7455 12.6803 50.6163 11.8738 50.6163 10.9776C50.6163 10.0815 50.7455 9.23018 51.047 8.46847C51.3484 7.70676 51.7361 7.03466 52.2098 6.45218C52.7267 5.86969 53.3296 5.42163 54.0188 5.10798C54.7079 4.79434 55.4831 4.61511 56.3445 4.61511C57.2921 4.61511 58.1104 4.79434 58.7995 5.15279C59.5317 5.51124 60.0916 6.00411 60.6084 6.63141C61.0822 7.2587 61.4698 8.06521 61.7282 8.91654C61.9867 9.81267 62.1159 10.7984 62.1159 11.8738H53.6742C53.8034 12.8147 54.1049 13.5764 54.5787 14.1141C55.0524 14.6518 55.7416 14.9206 56.646 14.9206C57.249 14.9206 57.7228 14.7862 58.1104 14.5174C58.4549 14.2485 58.7564 13.8901 58.8856 13.442H61.9436C61.8574 13.9797 61.6421 14.4725 61.3837 14.9654C61.0822 15.4583 60.7376 15.8615 60.3069 16.22C59.8762 16.5785 59.3163 16.8921 58.7134 17.0713C58.1104 17.2954 57.4213 17.385 56.6891 17.385C55.6985 17.385 54.8371 17.2057 54.0618 16.8921ZM54.5356 7.75157C54.1049 8.19963 53.8465 8.87173 53.6742 9.63344H58.8426C58.7995 8.87173 58.5411 8.24444 58.1104 7.75157C57.6797 7.2587 57.0767 7.03466 56.3876 7.03466C55.5693 7.07947 54.9663 7.3035 54.5356 7.75157Z" fill="#FFFFFF"/>
<path d="M66.7243 16.892C65.9922 16.5783 65.3461 16.1303 64.8724 15.5478C64.3555 14.9653 63.9679 14.2932 63.6664 13.5315C63.3649 12.7698 63.2357 11.9184 63.2357 11.0223C63.2357 10.1262 63.3649 9.27486 63.6233 8.51315C63.8817 7.75144 64.2694 7.03454 64.7862 6.49686C65.303 5.91437 65.906 5.46631 66.5951 5.15266C67.3273 4.83902 68.1026 4.65979 69.007 4.65979C69.7823 4.65979 70.4283 4.7494 71.0313 4.97344C71.6343 5.19747 72.1511 5.51111 72.6249 5.86957C73.0987 6.22802 73.4432 6.72089 73.7016 7.25857C74.0031 7.79625 74.1754 8.42354 74.2615 9.05083H71.2467C71.1605 8.51315 70.9021 8.06509 70.5145 7.70663C70.1268 7.34818 69.6531 7.16896 69.0932 7.16896C68.1456 7.16896 67.4565 7.52741 66.9828 8.19951C66.509 8.8716 66.2937 9.81254 66.2937 10.9775C66.2937 12.1425 66.509 13.0386 66.9828 13.7555C67.4135 14.4724 68.1456 14.7861 69.0932 14.7861C69.7392 14.7861 70.2561 14.6068 70.6437 14.2932C71.0313 13.9347 71.2897 13.4419 71.4189 12.725H74.3907C74.3477 13.3523 74.1754 13.9795 73.917 14.5172C73.6586 15.0549 73.314 15.5478 72.8402 15.9958C72.4095 16.3991 71.8496 16.7576 71.2467 16.9816C70.6006 17.2056 69.9115 17.34 69.1362 17.34C68.2749 17.3848 67.4565 17.2056 66.7243 16.892Z" fill="#FFFFFF"/>
<path d="M79.1715 12.9491V17.0265H76.1135V0.134399H79.1715V9.49896L83.3062 4.9287H87.0102L82.7032 9.54377L87.527 17.0265H83.7799L80.5066 11.5153L79.1715 12.9491Z" fill="#FFFFFF"/>
<path d="M90.9295 16.892C90.1973 16.5783 89.5513 16.1303 88.9914 15.5478C88.4745 14.9653 88.0438 14.2932 87.7424 13.5315C87.4409 12.7698 87.3117 11.9184 87.3117 11.0223C87.3117 10.1262 87.4409 9.27486 87.7424 8.51315C88.0438 7.75144 88.4745 7.03454 88.9914 6.49686C89.5082 5.91437 90.1543 5.46631 90.9295 5.15266C91.6617 4.83902 92.48 4.65979 93.3845 4.65979C94.289 4.65979 95.1073 4.83902 95.8395 5.15266C96.5717 5.46631 97.2177 5.91437 97.7776 6.49686C98.2944 7.07934 98.7251 7.75144 99.0266 8.51315C99.3281 9.27486 99.4573 10.1262 99.4573 11.0223C99.4573 11.9184 99.3281 12.7698 99.0266 13.5315C98.7251 14.2932 98.2944 15.0101 97.7776 15.5478C97.2608 16.1303 96.6147 16.5783 95.8395 16.892C95.1073 17.2056 94.289 17.3848 93.3845 17.3848C92.48 17.3848 91.6617 17.2056 90.9295 16.892ZM95.5811 13.8451C96.0979 13.1282 96.3563 12.1873 96.3563 10.9775C96.3563 9.76773 96.0979 8.8268 95.5811 8.10989C95.0642 7.39299 94.332 6.98973 93.3845 6.98973C92.437 6.98973 91.7048 7.34818 91.1879 8.10989C90.6711 8.8268 90.4127 9.81254 90.4127 10.9775C90.4127 12.1425 90.6711 13.1282 91.1879 13.8451C91.7048 14.562 92.437 14.9205 93.3845 14.9205C94.332 14.9205 95.0642 14.562 95.5811 13.8451Z" fill="#FFFFFF"/>
<path d="M108.502 15.5927H108.416C108.028 16.1303 107.554 16.5784 107.081 16.892C106.564 17.2057 105.918 17.3401 105.099 17.3401C103.807 17.3401 102.817 16.9369 102.085 16.1751C101.395 15.3686 101.051 14.3381 101.051 12.9939V4.92871H104.109V12.4562C104.109 13.1731 104.281 13.7108 104.583 14.0692C104.884 14.4277 105.401 14.6517 106.047 14.6517C106.779 14.6517 107.339 14.3829 107.77 13.89C108.2 13.3971 108.416 12.725 108.416 11.9185V4.92871H111.517V17.0265H108.545V15.5927H108.502Z" fill="#FFFFFF"/>
<path d="M114.489 4.92867V1.12012H117.504V4.92867H119.485V7.03458H117.504V13.4419C117.504 13.89 117.59 14.2036 117.805 14.3828C118.02 14.5621 118.279 14.6517 118.666 14.6517H119.269C119.355 14.6517 119.485 14.6517 119.571 14.6069V17.0264C119.399 17.0264 119.269 17.0712 119.054 17.0712C118.882 17.0712 118.666 17.116 118.451 17.116H117.633C117.245 17.116 116.901 17.0712 116.513 16.9816C116.125 16.892 115.824 16.7576 115.522 16.5336C115.221 16.3095 114.962 15.9959 114.79 15.6374C114.618 15.279 114.489 14.7861 114.489 14.2036V7.03458H112.895V4.92867H114.489Z" fill="#FFFFFF"/>
<path d="M129.305 16.8472C128.659 16.5335 128.099 16.0855 127.625 15.503C127.151 14.9205 126.807 14.2484 126.591 13.4867C126.376 12.725 126.247 11.8737 126.247 10.9327C126.247 9.99179 126.376 9.18527 126.591 8.37875C126.85 7.61704 127.194 6.90014 127.625 6.36246C128.099 5.77997 128.659 5.33191 129.305 5.01826C129.951 4.70462 130.726 4.52539 131.587 4.52539C132.879 4.52539 133.956 4.88384 134.774 5.55594C135.593 6.22804 136.11 7.21378 136.325 8.46836H134.947C134.774 7.57223 134.43 6.85533 133.827 6.40726C133.267 5.9592 132.535 5.73517 131.63 5.73517C130.941 5.73517 130.381 5.86959 129.865 6.13843C129.391 6.40726 128.96 6.76572 128.659 7.25859C128.357 7.70665 128.099 8.28914 127.969 8.91643C127.797 9.54372 127.754 10.2158 127.754 10.9327C127.754 11.6496 127.84 12.3217 128.013 12.949C128.185 13.5763 128.4 14.114 128.745 14.6069C129.046 15.0997 129.477 15.4582 129.951 15.727C130.424 15.9959 131.027 16.1303 131.673 16.1303C132.664 16.1303 133.482 15.8166 134.085 15.2341C134.688 14.6517 135.033 13.8451 135.162 12.8594H136.497C136.368 14.2484 135.894 15.3238 135.033 16.1751C134.215 16.9816 133.095 17.3849 131.673 17.3849C130.726 17.3401 129.951 17.1608 129.305 16.8472Z" fill="#FFFFFF"/>
<path d="M140.804 16.8472C140.115 16.5335 139.555 16.0855 139.081 15.503C138.608 14.9205 138.263 14.2484 138.005 13.4867C137.746 12.725 137.617 11.8737 137.617 10.9327C137.617 9.99179 137.746 9.18527 138.005 8.37875C138.263 7.61704 138.608 6.90014 139.081 6.36246C139.555 5.77997 140.115 5.33191 140.804 5.01826C141.493 4.70462 142.226 4.52539 143.087 4.52539C143.948 4.52539 144.68 4.70462 145.37 5.01826C146.016 5.33191 146.619 5.77997 147.092 6.36246C147.566 6.94494 147.911 7.61704 148.169 8.37875C148.428 9.14046 148.514 9.99179 148.514 10.9327C148.514 11.8737 148.384 12.6802 148.169 13.4867C147.911 14.2484 147.566 14.9653 147.092 15.503C146.619 16.0855 146.059 16.5335 145.37 16.8472C144.724 17.1608 143.948 17.3401 143.087 17.3401C142.269 17.3401 141.493 17.1608 140.804 16.8472ZM144.81 15.727C145.327 15.4582 145.714 15.0997 146.059 14.6069C146.403 14.114 146.662 13.5763 146.791 12.949C146.963 12.3217 147.049 11.6496 147.049 10.9327C147.049 10.2158 146.963 9.54372 146.791 8.91643C146.619 8.28914 146.36 7.75146 146.059 7.25859C145.714 6.76572 145.327 6.40726 144.81 6.13843C144.293 5.86959 143.733 5.73517 143.087 5.73517C142.441 5.73517 141.838 5.86959 141.364 6.13843C140.89 6.40726 140.46 6.76572 140.115 7.25859C139.771 7.75146 139.512 8.28914 139.34 8.91643C139.168 9.54372 139.081 10.2158 139.081 10.9327C139.081 11.6496 139.168 12.3217 139.34 12.949C139.512 13.5763 139.771 14.114 140.115 14.6069C140.46 15.0997 140.89 15.4582 141.364 15.727C141.838 15.9959 142.441 16.1303 143.087 16.1303C143.733 16.1303 144.336 15.9959 144.81 15.727Z" fill="#FFFFFF"/>
<path d="M151.916 4.79424V6.6313H151.959C152.347 6.00401 152.821 5.51114 153.381 5.10788C153.94 4.70462 154.673 4.5254 155.534 4.5254C156.266 4.5254 156.912 4.70462 157.472 5.06308C158.032 5.42153 158.42 6.00401 158.678 6.72092H158.721C159.109 6.00401 159.626 5.46633 160.272 5.06308C160.918 4.65982 161.65 4.48059 162.468 4.48059C162.985 4.48059 163.416 4.5702 163.847 4.74943C164.277 4.92866 164.665 5.15269 164.966 5.46633C165.268 5.77998 165.526 6.18324 165.699 6.67611C165.871 7.16898 165.957 7.70666 165.957 8.28914V17.0264H164.579V8.46837C164.579 7.57224 164.363 6.90014 163.89 6.45208C163.416 6.00401 162.813 5.82479 162.124 5.82479C161.693 5.82479 161.262 5.9144 160.918 6.04882C160.53 6.22805 160.186 6.45208 159.927 6.72092C159.669 6.98976 159.41 7.39301 159.238 7.79627C159.066 8.24434 158.98 8.6924 158.98 9.23008V17.0264H157.558V8.46837C157.558 7.57224 157.343 6.90014 156.869 6.45208C156.439 6.00401 155.879 5.82479 155.19 5.82479C154.759 5.82479 154.371 5.9144 153.984 6.09363C153.596 6.27285 153.251 6.49688 152.907 6.81053C152.605 7.12418 152.347 7.48263 152.175 7.93069C152.002 8.33395 151.916 8.82682 151.916 9.31969V17.0264H150.495V4.79424H151.916Z" fill="#FFFFFF"/>
<path d="M13.9214 11.0224L19.4343 0.985743C19.5635 0.761711 19.5635 0.537678 19.4343 0.313646C19.3051 0.13442 19.0898 0 18.8744 0H7.50402C7.28867 0 7.07332 0.13442 6.94411 0.313646L1.08663 10.664C0.957425 10.888 0.957425 11.1568 1.08663 11.336L6.94411 21.6864C7.07332 21.9104 7.28867 22 7.50402 22H18.8744C19.0898 22 19.3051 21.8656 19.4343 21.6864C19.5635 21.4623 19.5635 21.2383 19.4343 21.0143L13.9214 11.0224ZM13.1892 9.67821L8.62383 1.3442H17.7977L13.1892 9.67821ZM7.46095 2.01629L12.414 11.0224L7.46095 20.0285L2.37872 11.0224L7.46095 2.01629ZM8.62383 20.6558L13.1892 12.3218L17.7546 20.6558H8.62383Z" fill="#FFFFFF"/>
</svg>
